<svg width="104" height="76" viewBox="0 0 104 76" fill="none" xmlns="http://www.w3.org/2000/svg">
<path d="M49.66 42.8H49.76C49.8533 42.8 49.94 42.76 50.02 42.68C50.1 42.6 50.1667 42.5067 50.22 42.4C50.2867 42.2933 50.3333 42.18 50.36 42.06C50.3867 41.9267 50.4 41.8067 50.4 41.7V31.18L45.24 43.22L40.34 31.8V41.7C40.34 41.8067 40.3533 41.9267 40.38 42.06C40.4067 42.18 40.4467 42.2933 40.5 42.4C40.5667 42.5067 40.64 42.6 40.72 42.68C40.8 42.76 40.8933 42.8 41 42.8H41.1V43H38.92V42.8H39.02C39.1133 42.8 39.2 42.76 39.28 42.68C39.36 42.6 39.4267 42.5067 39.48 42.4C39.5333 42.2933 39.5733 42.18 39.6 42.06C39.6267 41.9267 39.64 41.8067 39.64 41.7V31.04C39.64 30.9467 39.6267 30.84 39.6 30.72C39.5733 30.6 39.5333 30.4867 39.48 30.38C39.4267 30.2733 39.36 30.1867 39.28 30.12C39.2 30.04 39.1133 30 39.02 30H38.92V29.8H40.96L45.6 40.74L50.24 29.8H52.5V30H52.4C52.2933 30 52.2 30.04 52.12 30.12C52.04 30.1867 51.9667 30.2733 51.9 30.38C51.8467 30.4867 51.8067 30.6 51.78 30.72C51.7533 30.84 51.74 30.9467 51.74 31.04V41.7C51.74 41.8067 51.7533 41.9267 51.78 42.06C51.8067 42.18 51.8467 42.2933 51.9 42.4C51.9667 42.5067 52.04 42.6 52.12 42.68C52.2 42.76 52.2933 42.8 52.4 42.8H52.5V43H49.66V42.8ZM55.6469 42.8H55.7469C55.8535 42.8 55.9469 42.7667 56.0269 42.7C56.1069 42.62 56.1735 42.5267 56.2269 42.42C56.2935 42.3133 56.3402 42.2 56.3669 42.08C56.4069 41.96 56.4269 41.8467 56.4269 41.74V31.04C56.4269 30.9467 56.4069 30.84 56.3669 30.72C56.3402 30.6 56.2935 30.4867 56.2269 30.38C56.1735 30.2733 56.1069 30.1867 56.0269 30.12C55.9469 30.04 55.8535 30 55.7469 30H55.6469V29.8H63.3469V31.66H63.1469C63.1202 31.3533 63.0002 31.0867 62.7869 30.86C62.5735 30.62 62.2402 30.5 61.7869 30.5H57.7669V35.56H61.0869C61.3935 35.56 61.6469 35.4667 61.8469 35.28C62.0602 35.0933 62.1669 34.8733 62.1669 34.62H62.3669V37.12H62.1669C62.1669 36.88 62.0669 36.6733 61.8669 36.5C61.6669 36.3267 61.4069 36.24 61.0869 36.24H57.7669V42.3H62.1469C62.4002 42.3 62.6202 42.24 62.8069 42.12C62.9935 42 63.1469 41.86 63.2669 41.7C63.4002 41.5267 63.4935 41.3467 63.5469 41.16C63.6135 40.96 63.6469 40.7933 63.6469 40.66H63.8469V43H55.6469V42.8ZM74.5339 42.8H74.6339C74.7272 42.8 74.8139 42.7667 74.8939 42.7C74.9739 42.62 75.0406 42.5267 75.0939 42.42C75.1606 42.3 75.2072 42.18 75.2339 42.06C75.2606 41.9267 75.2739 41.8067 75.2739 41.7V36.26H68.8739V41.7C68.8739 41.8067 68.8872 41.9267 68.9139 42.06C68.9406 42.18 68.9806 42.2933 69.0339 42.4C69.0872 42.5067 69.1472 42.6 69.2139 42.68C69.2939 42.76 69.3872 42.8 69.4939 42.8H69.5939V43H66.7939V42.8H66.8939C66.9872 42.8 67.0739 42.7667 67.1539 42.7C67.2339 42.62 67.3006 42.5267 67.3539 42.42C67.4206 42.3 67.4672 42.18 67.4939 42.06C67.5206 41.9267 67.5339 41.8067 67.5339 41.7V31.04C67.5339 30.9467 67.5206 30.84 67.4939 30.72C67.4672 30.6 67.4272 30.4867 67.3739 30.38C67.3206 30.2733 67.2539 30.1867 67.1739 30.12C67.0939 30.04 67.0006 30 66.8939 30H66.7939V29.8H69.5939V30H69.4939C69.3872 30 69.2939 30.04 69.2139 30.12C69.1339 30.1867 69.0672 30.2733 69.0139 30.38C68.9739 30.4867 68.9406 30.6 68.9139 30.72C68.8872 30.84 68.8739 30.9467 68.8739 31.04V35.56H75.2739V31.04C75.2739 30.9467 75.2606 30.84 75.2339 30.72C75.2072 30.6 75.1672 30.4867 75.1139 30.38C75.0606 30.2733 74.9939 30.1867 74.9139 30.12C74.8339 30.04 74.7406 30 74.6339 30H74.5339V29.8H77.3339V30H77.2339C77.1272 30 77.0339 30.04 76.9539 30.12C76.8739 30.1867 76.8072 30.2733 76.7539 30.38C76.7139 30.4867 76.6806 30.6 76.6539 30.72C76.6272 30.84 76.6139 30.9467 76.6139 31.04V41.7C76.6139 41.8067 76.6272 41.9267 76.6539 42.06C76.6939 42.18 76.7406 42.2933 76.7939 42.4C76.8472 42.5067 76.9072 42.6 76.9739 42.68C77.0539 42.76 77.1406 42.8 77.2339 42.8H77.3339V43H74.5339V42.8ZM80.2353 42.8H80.3353C80.4286 42.8 80.5086 42.76 80.5753 42.68C80.6553 42.6 80.722 42.5067 80.7753 42.4C80.8286 42.2933 80.8686 42.18 80.8953 42.06C80.922 41.9267 80.9353 41.8067 80.9353 41.7V31.04C80.9353 30.9467 80.9153 30.84 80.8753 30.72C80.8486 30.6 80.8086 30.4867 80.7553 30.38C80.702 30.2733 80.6353 30.1867 80.5553 30.12C80.4886 30.04 80.4086 30 80.3153 30H80.2153V29.8H83.0353V30H82.8753C82.782 30.0133 82.6953 30.06 82.6153 30.14C82.5486 30.22 82.4886 30.3133 82.4353 30.42C82.382 30.5267 82.342 30.64 82.3153 30.76C82.2886 30.8667 82.2753 30.96 82.2753 31.04V35.56H83.5953C83.7153 34.8 83.9486 34.0667 84.2953 33.36C84.6553 32.64 85.1153 32 85.6753 31.44C86.2353 30.88 86.8953 30.4333 87.6553 30.1C88.4153 29.7667 89.2753 29.6 90.2353 29.6C91.2753 29.6 92.1953 29.7867 92.9953 30.16C93.8086 30.52 94.4953 31.0133 95.0553 31.64C95.6153 32.2533 96.0353 32.9733 96.3153 33.8C96.6086 34.6133 96.7553 35.4667 96.7553 36.36C96.7553 37.36 96.582 38.28 96.2353 39.12C95.8886 39.96 95.4086 40.68 94.7953 41.28C94.182 41.88 93.462 42.3533 92.6353 42.7C91.8086 43.0333 90.9153 43.2 89.9553 43.2C88.9286 43.2 88.0153 43.0133 87.2153 42.64C86.4286 42.2667 85.762 41.7733 85.2153 41.16C84.6686 40.5467 84.2486 39.84 83.9553 39.04C83.6753 38.24 83.5353 37.4067 83.5353 36.54V36.24H82.2753V41.7C82.2753 41.8067 82.2886 41.92 82.3153 42.04C82.3553 42.16 82.402 42.28 82.4553 42.4C82.5086 42.5067 82.5753 42.6 82.6553 42.68C82.7353 42.76 82.822 42.8 82.9153 42.8H83.0553V43H80.2353V42.8ZM90.2153 42.5C91.1086 42.46 91.882 42.26 92.5353 41.9C93.202 41.5267 93.7486 41.06 94.1753 40.5C94.602 39.9267 94.9153 39.3 95.1153 38.62C95.3286 37.94 95.4353 37.2667 95.4353 36.6C95.4353 35.8667 95.3086 35.1267 95.0553 34.38C94.802 33.6333 94.442 32.96 93.9753 32.36C93.5086 31.7467 92.9353 31.2533 92.2553 30.88C91.5886 30.4933 90.8286 30.3 89.9753 30.3C89.1486 30.3 88.4153 30.4867 87.7753 30.86C87.1486 31.22 86.6153 31.6867 86.1753 32.26C85.7486 32.8333 85.422 33.4733 85.1953 34.18C84.9686 34.8867 84.8553 35.58 84.8553 36.26C84.8553 36.9933 84.982 37.7333 85.2353 38.48C85.502 39.2133 85.8686 39.88 86.3353 40.48C86.8153 41.08 87.382 41.5667 88.0353 41.94C88.6886 42.3133 89.4153 42.5 90.2153 42.5Z" fill="white"/>
<path d="M0 35H23" stroke="white"/>
<path d="M0 41H23" stroke="white"/>
</svg>
