<svg width="83" height="15" viewBox="0 0 83 15" fill="none" xmlns="http://www.w3.org/2000/svg">
<path d="M43.8464 5.66537C43.8464 7.07771 43.1738 8.39036 42.4598 9.37864C42.1067 9.86754 41.7528 10.264 41.4877 10.5377C41.4513 10.5752 41.4166 10.6104 41.3839 10.6432C41.3512 10.6104 41.3165 10.5752 41.2801 10.5377C41.015 10.264 40.6611 9.86754 40.3079 9.37864C39.594 8.39036 38.9214 7.07771 38.9214 5.66537C38.9214 4.25302 39.594 2.94038 40.3079 1.9521C40.6611 1.4632 41.015 1.06675 41.2801 0.793059C41.3165 0.755493 41.3512 0.720292 41.3839 0.687535C41.4166 0.720292 41.4513 0.755493 41.4877 0.793059C41.7528 1.06675 42.1067 1.4632 42.4598 1.9521C43.1738 2.94038 43.8464 4.25302 43.8464 5.66537Z" stroke="white"/>
<path d="M40.1073 5.66985C40.9636 6.67066 41.3085 8.14469 41.4249 9.43943C41.4823 10.0775 41.4822 10.6501 41.4676 11.0629C41.4647 11.1439 41.4613 11.2187 41.4577 11.2863C41.3998 11.2906 41.3359 11.2946 41.2665 11.2979C40.9133 11.3149 40.4234 11.315 39.8774 11.248C38.7695 11.112 37.5082 10.7089 36.6518 9.70812C35.7955 8.70731 35.4506 7.23328 35.3342 5.93854C35.2768 5.30044 35.2769 4.72789 35.2915 4.3151C35.2944 4.23403 35.2978 4.15929 35.3014 4.09164C35.3593 4.0874 35.4232 4.08342 35.4926 4.08007C35.8458 4.06304 36.3357 4.06292 36.8818 4.12997C37.9896 4.26601 39.2509 4.66904 40.1073 5.66985Z" stroke="white"/>
<path d="M43.4826 5.66985C42.6262 6.67066 42.2814 8.14469 42.1649 9.43943C42.1076 10.0775 42.1077 10.6501 42.1223 11.0629C42.1251 11.1439 42.1285 11.2187 42.1322 11.2863C42.19 11.2906 42.254 11.2946 42.3234 11.2979C42.6766 11.3149 43.1665 11.315 43.7125 11.248C44.8204 11.112 46.0816 10.7089 46.938 9.70812C47.7944 8.70731 48.1392 7.23328 48.2556 5.93854C48.313 5.30044 48.3129 4.72789 48.2983 4.3151C48.2955 4.23403 48.2921 4.15929 48.2884 4.09164C48.2305 4.0874 48.1666 4.08342 48.0972 4.08007C47.744 4.06304 47.2541 4.06292 46.7081 4.12997C45.6002 4.26601 44.3389 4.66904 43.4826 5.66985Z" stroke="white"/>
<path d="M28.3583 8.08252H0" stroke="white"/>
<path d="M82.9999 8.08332L54.6416 8.08331" stroke="white"/>
</svg>
