<svg width="22" height="212" viewBox="0 0 22 212" fill="none" xmlns="http://www.w3.org/2000/svg">
<path d="M5.72 8.28C5.72 8.17333 5.69333 8.07333 5.64 7.98C5.6 7.88667 5.54667 7.78 5.48 7.66C5.34667 7.43333 5.20667 7.13333 5.06 6.76C4.92667 6.38667 4.86 5.92 4.86 5.36C4.86 4.68 4.96667 4.05333 5.18 3.48C5.40667 2.92 5.71333 2.43333 6.1 2.02C6.5 1.60667 6.96 1.28667 7.48 1.06C8.01333 0.833333 8.58667 0.72 9.2 0.72C9.77333 0.72 10.32 0.82 10.84 1.02C11.36 1.23333 11.82 1.53333 12.22 1.92C12.62 2.30667 12.94 2.78 13.18 3.34C13.42 3.91333 13.54 4.56 13.54 5.28C13.54 5.77333 13.48 6.17333 13.36 6.48C13.2533 6.78667 13.1467 7.04667 13.04 7.26C12.9733 7.38 12.92 7.49333 12.88 7.6C12.84 7.72 12.82 7.84 12.82 7.96H11.3V7.76C11.5533 7.69333 11.7733 7.57333 11.96 7.4C12.16 7.22667 12.3267 7.02667 12.46 6.8C12.5933 6.57333 12.6933 6.32667 12.76 6.06C12.8267 5.79333 12.86 5.53333 12.86 5.28C12.86 4.73333 12.76 4.25333 12.56 3.84C12.3733 3.42667 12.12 3.08667 11.8 2.82C11.4933 2.55333 11.14 2.35333 10.74 2.22C10.34 2.08667 9.92667 2.02 9.5 2.02C9.00667 2.02 8.52 2.09333 8.04 2.24C7.57333 2.4 7.15333 2.62 6.78 2.9C6.40667 3.19333 6.10667 3.54667 5.88 3.96C5.65333 4.38667 5.54 4.86667 5.54 5.4C5.54 5.77333 5.59333 6.12 5.7 6.44C5.80667 6.76 5.94667 7.03333 6.12 7.26C6.29333 7.5 6.48 7.68667 6.68 7.82C6.89333 7.96667 7.09333 8.05333 7.28 8.08V8.28H5.72ZM6.3 19.9709C6.19333 19.9709 6.07333 19.9843 5.94 20.0109C5.82 20.0376 5.70667 20.0776 5.6 20.1309C5.49333 20.1976 5.4 20.2709 5.32 20.3509C5.24 20.4309 5.2 20.5243 5.2 20.6309H5V18.0309H5.2C5.2 18.1376 5.23333 18.2309 5.3 18.3109C5.38 18.3909 5.47333 18.4576 5.58 18.5109C5.7 18.5643 5.82 18.6043 5.94 18.6309C6.07333 18.6576 6.19333 18.6709 6.3 18.6709H11.7L4.82 15.3309L11.3 12.1309L6.3 12.1309C6.19333 12.1309 6.07333 12.1443 5.94 12.1709C5.82 12.1976 5.70667 12.2376 5.6 12.2909C5.49333 12.3443 5.4 12.4109 5.32 12.4909C5.24 12.5709 5.2 12.6643 5.2 12.7709H5V10.8309H5.2C5.2 10.9376 5.24 11.0309 5.32 11.1109C5.4 11.1909 5.49333 11.2509 5.6 11.2909C5.70667 11.3443 5.82 11.3843 5.94 11.4109C6.07333 11.4376 6.19333 11.4509 6.3 11.4509L12.16 11.4509C12.4 11.4509 12.6333 11.4176 12.86 11.3509C13.0867 11.2976 13.2 11.1243 13.2 10.8309H13.4V12.6109L7.14 15.6709L13.4 18.7309V20.6309H13.2C13.2 20.4309 13.0733 20.2709 12.82 20.1509C12.58 20.0309 12.36 19.9709 12.16 19.9709H6.3ZM4.86 27.9883C4.86 27.3216 4.96667 26.7216 5.18 26.1883C5.40667 25.6549 5.70667 25.1949 6.08 24.8083C6.46667 24.4349 6.92 24.1416 7.44 23.9283C7.96 23.7283 8.52667 23.6283 9.14 23.6283C9.79333 23.6283 10.3867 23.7416 10.92 23.9683C11.4667 24.1949 11.9333 24.5083 12.32 24.9083C12.7067 25.3083 13.0067 25.7816 13.22 26.3283C13.4333 26.8749 13.54 27.4683 13.54 28.1083C13.54 28.7483 13.4333 29.3349 13.22 29.8683C13.02 30.4016 12.7333 30.8616 12.36 31.2483C11.9867 31.6349 11.54 31.9349 11.02 32.1483C10.5133 32.3616 9.95333 32.4683 9.34 32.4683C8.76667 32.4683 8.20667 32.3683 7.66 32.1683C7.12667 31.9816 6.65333 31.6949 6.24 31.3083C5.82667 30.9349 5.49333 30.4683 5.24 29.9083C4.98667 29.3616 4.86 28.7216 4.86 27.9883ZM12.88 27.8683C12.8533 27.3883 12.7333 26.9616 12.52 26.5883C12.32 26.2283 12.0533 25.9216 11.72 25.6683C11.4 25.4283 11.0333 25.2416 10.62 25.1083C10.2067 24.9883 9.78667 24.9283 9.36 24.9283C8.86667 24.9283 8.38667 25.0016 7.92 25.1483C7.46667 25.3083 7.06 25.5283 6.7 25.8083C6.34 26.1016 6.05333 26.4483 5.84 26.8483C5.62667 27.2483 5.52 27.6949 5.52 28.1883C5.52 28.6816 5.62667 29.1149 5.84 29.4883C6.05333 29.8749 6.32667 30.1949 6.66 30.4483C7.00667 30.7016 7.39333 30.8883 7.82 31.0083C8.24667 31.1416 8.67333 31.2083 9.1 31.2083C9.54 31.2083 9.98 31.1416 10.42 31.0083C10.8733 30.8749 11.28 30.6683 11.64 30.3883C12.0133 30.1083 12.3133 29.7549 12.54 29.3283C12.7667 28.9149 12.88 28.4283 12.88 27.8683ZM11.3 41.9241C11.4467 41.9241 11.6067 41.8974 11.78 41.8441C11.9533 41.7907 12.1067 41.7107 12.24 41.6041C12.3867 41.4974 12.5067 41.3641 12.6 41.2041C12.6933 41.0441 12.74 40.8574 12.74 40.6441V38.8841H6.3C6.19333 38.8841 6.08 38.8974 5.96 38.9241C5.84 38.9507 5.72 38.9907 5.6 39.0441C5.49333 39.1107 5.4 39.1774 5.32 39.2441C5.24 39.3241 5.2 39.4174 5.2 39.5241H5V36.9241H5.2C5.2 37.0307 5.24 37.1241 5.32 37.2041C5.4 37.2841 5.49333 37.3507 5.6 37.4041C5.70667 37.4707 5.82 37.5174 5.94 37.5441C6.07333 37.5707 6.19333 37.5841 6.3 37.5841H12.74V35.8641C12.74 35.6507 12.6933 35.4641 12.6 35.3041C12.5067 35.1441 12.3867 35.0107 12.24 34.9041C12.1067 34.8107 11.9533 34.7374 11.78 34.6841C11.6067 34.6307 11.4467 34.6041 11.3 34.6041V34.4041H13.4V42.1041H11.3V41.9241ZM13.54 48.71C13.54 49.43 13.4133 50.05 13.16 50.57C12.92 51.1033 12.6 51.5433 12.2 51.89C11.8 52.25 11.34 52.5167 10.82 52.69C10.3 52.8633 9.76667 52.95 9.22 52.95C8.68667 52.95 8.16 52.8633 7.64 52.69C7.12 52.53 6.65333 52.2767 6.24 51.93C5.82667 51.5967 5.49333 51.1767 5.24 50.67C4.98667 50.1633 4.86 49.5633 4.86 48.87C4.86 48.4567 4.96667 48.03 5.18 47.59C5.40667 47.1633 5.68667 46.7767 6.02 46.43H1.9C1.79333 46.43 1.68 46.4433 1.56 46.47C1.42667 46.4967 1.30667 46.5367 1.2 46.59C1.09333 46.6567 1 46.7233 0.92 46.79C0.84 46.87 0.8 46.9633 0.8 47.07H0.6V44.47H0.8C0.8 44.5633 0.84 44.65 0.92 44.73C1 44.81 1.09333 44.8767 1.2 44.93C1.30667 44.9967 1.42667 45.0433 1.56 45.07C1.68 45.0967 1.79333 45.11 1.9 45.11H12.22C12.34 45.11 12.4533 45.1033 12.56 45.09C12.68 45.09 12.78 45.07 12.86 45.03C12.9533 44.99 13.0267 44.9233 13.08 44.83C13.1467 44.75 13.1867 44.63 13.2 44.47H13.4V46.43H12.52C12.84 46.6967 13.0867 47.0167 13.26 47.39C13.4467 47.7767 13.54 48.2167 13.54 48.71ZM5.54 48.89C5.55333 49.3567 5.66 49.7633 5.86 50.11C6.06 50.4567 6.32 50.7433 6.64 50.97C6.96 51.1967 7.31333 51.3633 7.7 51.47C8.1 51.5767 8.51333 51.63 8.94 51.63C9.42 51.63 9.89333 51.5633 10.36 51.43C10.8267 51.2967 11.24 51.1033 11.6 50.85C11.9733 50.5967 12.2733 50.2833 12.5 49.91C12.74 49.55 12.86 49.1367 12.86 48.67C12.86 48.39 12.8067 48.11 12.7 47.83C12.5933 47.5633 12.44 47.3233 12.24 47.11C12.04 46.91 11.8 46.7433 11.52 46.61C11.2533 46.49 10.9533 46.43 10.62 46.43H8C7.64 46.43 7.30667 46.5033 7 46.65C6.70667 46.7967 6.44667 46.9833 6.22 47.21C6.00667 47.45 5.84 47.7167 5.72 48.01C5.6 48.3033 5.54 48.5967 5.54 48.89ZM9.04 57.043C8.57333 57.0963 8.12667 57.2096 7.7 57.383C7.28667 57.5563 6.92 57.783 6.6 58.063C6.28 58.3563 6.02 58.7096 5.82 59.123C5.63333 59.5363 5.54 60.0163 5.54 60.563C5.54 60.8563 5.58 61.163 5.66 61.483C5.75333 61.8163 5.88 62.123 6.04 62.403C6.2 62.683 6.39333 62.9296 6.62 63.143C6.86 63.3696 7.12667 63.523 7.42 63.603V63.783H5.92C5.92 63.703 5.89333 63.6096 5.84 63.503C5.78667 63.4096 5.72 63.2963 5.64 63.163C5.48 62.8963 5.30667 62.5363 5.12 62.083C4.94667 61.6296 4.86 61.0296 4.86 60.283C4.86 59.683 4.94667 59.1096 5.12 58.563C5.29333 58.0296 5.56 57.5563 5.92 57.143C6.28 56.7296 6.74 56.3963 7.3 56.143C7.86 55.903 8.52667 55.783 9.3 55.783C9.79333 55.783 10.2933 55.863 10.8 56.023C11.3067 56.1963 11.76 56.4496 12.16 56.783C12.5733 57.1296 12.9067 57.5696 13.16 58.103C13.4133 58.6363 13.54 59.2763 13.54 60.023C13.54 60.6896 13.4267 61.2696 13.2 61.763C12.9733 62.2696 12.66 62.683 12.26 63.003C11.86 63.3363 11.3867 63.583 10.84 63.743C10.2933 63.903 9.69333 63.983 9.04 63.983V57.043ZM12.88 59.943C12.88 59.4763 12.7867 59.0696 12.6 58.723C12.4133 58.3896 12.1733 58.103 11.88 57.863C11.5867 57.623 11.2533 57.4363 10.88 57.303C10.5067 57.1696 10.1333 57.083 9.76 57.043V62.743C10.1467 62.7296 10.5267 62.6563 10.9 62.523C11.2733 62.403 11.6067 62.2296 11.9 62.003C12.1933 61.7763 12.4267 61.4896 12.6 61.143C12.7867 60.7963 12.88 60.3963 12.88 59.943ZM11.3 73.61C11.4467 73.61 11.6067 73.5833 11.78 73.53C11.9533 73.4767 12.1067 73.3967 12.24 73.29C12.3867 73.1833 12.5067 73.05 12.6 72.89C12.6933 72.73 12.74 72.5433 12.74 72.33V70.57H6.3C6.19333 70.57 6.08 70.5833 5.96 70.61C5.84 70.6367 5.72 70.6767 5.6 70.73C5.49333 70.7967 5.4 70.8633 5.32 70.93C5.24 71.01 5.2 71.1033 5.2 71.21H5V68.61H5.2C5.2 68.7167 5.24 68.81 5.32 68.89C5.4 68.97 5.49333 69.0367 5.6 69.09C5.70667 69.1567 5.82 69.2033 5.94 69.23C6.07333 69.2567 6.19333 69.27 6.3 69.27H12.74V67.55C12.74 67.3367 12.6933 67.15 12.6 66.99C12.5067 66.83 12.3867 66.6967 12.24 66.59C12.1067 66.4967 11.9533 66.4233 11.78 66.37C11.6067 66.3167 11.4467 66.29 11.3 66.29V66.09H13.4L13.4 73.79H11.3V73.61ZM9.76 79.6559C9.76 80.2693 9.7 80.8026 9.58 81.2559C9.46 81.7226 9.29333 82.1026 9.08 82.3959C8.86667 82.7026 8.61333 82.9293 8.32 83.0759C8.04 83.2226 7.73333 83.2959 7.4 83.2959C7.06667 83.2959 6.75333 83.2226 6.46 83.0759C6.16667 82.9293 5.91333 82.6959 5.7 82.3759C5.48667 82.0693 5.31333 81.6826 5.18 81.2159C5.06 80.7493 5 80.1959 5 79.5559V76.1359H5.2C5.2 76.2426 5.23333 76.3359 5.3 76.4159C5.38 76.4959 5.47333 76.5626 5.58 76.6159C5.7 76.6826 5.82 76.7293 5.94 76.7559C6.07333 76.7826 6.19333 76.7959 6.3 76.7959H12.16C12.2533 76.7959 12.36 76.7826 12.48 76.7559C12.6 76.7293 12.7133 76.6826 12.82 76.6159C12.9267 76.5626 13.0133 76.4959 13.08 76.4159C13.16 76.3359 13.2 76.2426 13.2 76.1359H13.4V78.7559H13.2C13.2 78.5559 13.0733 78.3959 12.82 78.2759C12.58 78.1559 12.36 78.0959 12.16 78.0959H9.76V79.6559ZM5.66 79.5159C5.66 80.3959 5.8 81.0293 6.08 81.4159C6.37333 81.8159 6.73333 82.0159 7.16 82.0159C7.4 82.0159 7.63333 81.9626 7.86 81.8559C8.1 81.7493 8.30667 81.5826 8.48 81.3559C8.66667 81.1426 8.81333 80.8759 8.92 80.5559C9.04 80.2359 9.1 79.8693 9.1 79.4559V78.0959H5.66V79.5159ZM6.56 98.6975C6.41333 98.7775 6.26 98.8842 6.1 99.0175C5.94 99.1508 5.79333 99.2975 5.66 99.4575C5.52667 99.6308 5.41333 99.8042 5.32 99.9775C5.24 100.151 5.2 100.318 5.2 100.478H5V99.7175C5 99.1042 5.12667 98.6308 5.38 98.2975C5.63333 97.9642 5.93333 97.7042 6.28 97.5175L8.06 96.5775C8.34 96.4308 8.58 96.1842 8.78 95.8375C8.99333 95.4908 9.1 95.1242 9.1 94.7375H6.26C6.15333 94.7375 6.04 94.7442 5.92 94.7575C5.8 94.7842 5.68667 94.8242 5.58 94.8775C5.47333 94.9308 5.38 94.9975 5.3 95.0775C5.23333 95.1575 5.2 95.2508 5.2 95.3575H5V92.7775H5.2C5.2 92.8708 5.23333 92.9575 5.3 93.0375C5.38 93.1308 5.47333 93.2042 5.58 93.2575C5.68667 93.3108 5.8 93.3508 5.92 93.3775C6.04 93.4042 6.15333 93.4175 6.26 93.4175H12.14C12.2333 93.4175 12.34 93.4042 12.46 93.3775C12.5933 93.3508 12.7133 93.3108 12.82 93.2575C12.9267 93.2175 13.0133 93.1575 13.08 93.0775C13.16 92.9975 13.2 92.8975 13.2 92.7775H13.4V95.3375H13.2C13.2 95.2442 13.16 95.1575 13.08 95.0775C13.0133 95.0108 12.9267 94.9508 12.82 94.8975C12.7133 94.8442 12.5933 94.8042 12.46 94.7775C12.34 94.7508 12.2333 94.7375 12.14 94.7375H10.08C10.5867 95.3108 11.0733 95.8775 11.54 96.4375C12.02 96.9975 12.5133 97.5642 13.02 98.1375C13.0333 98.1375 13.0467 98.1442 13.06 98.1575C13.0733 98.1708 13.0867 98.1775 13.1 98.1775C13.1667 98.1775 13.2 98.1442 13.2 98.0775H13.4V99.8175H13.2C13.2 99.7508 13.18 99.6708 13.14 99.5775C13.1 99.4842 13.0533 99.3908 13 99.2975C12.9467 99.1908 12.88 99.0842 12.8 98.9775C12.2933 98.3775 11.7733 97.7775 11.24 97.1775C10.72 96.5775 10.2067 95.9775 9.7 95.3775C9.7 95.9508 9.59333 96.4175 9.38 96.7775C9.16667 97.1508 8.82667 97.4642 8.36 97.7175L6.56 98.6975ZM5 108.141H6.02L5.92 108.041C5.58667 107.708 5.32667 107.321 5.14 106.881C4.95333 106.454 4.86 105.934 4.86 105.321C4.86 104.854 4.91333 104.454 5.02 104.121C5.12667 103.788 5.27333 103.514 5.46 103.301C5.66 103.088 5.88667 102.928 6.14 102.821C6.39333 102.728 6.66 102.681 6.94 102.681C7.39333 102.681 7.79333 102.801 8.14 103.041C8.48667 103.294 8.79333 103.654 9.06 104.121C9.32667 104.588 9.56667 105.154 9.78 105.821C10.0067 106.501 10.2267 107.274 10.44 108.141C10.96 108.114 11.38 108.008 11.7 107.821C12.02 107.634 12.2667 107.414 12.44 107.161C12.6267 106.908 12.7467 106.641 12.8 106.361C12.8667 106.081 12.9 105.841 12.9 105.641C12.9 105.294 12.8467 104.988 12.74 104.721C12.6467 104.454 12.5133 104.221 12.34 104.021C12.18 103.821 11.9933 103.654 11.78 103.521C11.5667 103.401 11.3533 103.308 11.14 103.241V103.061H12.7C12.7 103.181 12.74 103.321 12.82 103.481C12.9133 103.641 13.0133 103.828 13.12 104.041C13.2267 104.268 13.32 104.534 13.4 104.841C13.4933 105.161 13.54 105.541 13.54 105.981C13.54 106.714 13.4467 107.308 13.26 107.761C13.0733 108.214 12.8267 108.561 12.52 108.801C12.2133 109.054 11.86 109.221 11.46 109.301C11.0733 109.381 10.6733 109.421 10.26 109.421H6.3C6.03333 109.421 5.78 109.488 5.54 109.621C5.31333 109.754 5.2 109.934 5.2 110.161H5V108.141ZM6.9 108.141H9.76L9.72 107.941C9.64 107.621 9.53333 107.228 9.4 106.761C9.26667 106.308 9.09333 105.874 8.88 105.461C8.66667 105.048 8.41333 104.694 8.12 104.401C7.82667 104.108 7.48667 103.961 7.1 103.961C6.67333 103.961 6.32 104.134 6.04 104.481C5.76 104.828 5.62 105.281 5.62 105.841C5.62 106.281 5.71333 106.668 5.9 107.001C6.1 107.334 6.35333 107.641 6.66 107.921L6.9 108.141ZM11.3 119.962C11.4467 119.962 11.6067 119.935 11.78 119.882C11.9533 119.828 12.1067 119.748 12.24 119.642C12.3867 119.535 12.5067 119.402 12.6 119.242C12.6933 119.082 12.74 118.895 12.74 118.682V116.922H6.3C6.19333 116.922 6.08 116.935 5.96 116.962C5.84 116.988 5.72 117.028 5.6 117.082C5.49333 117.148 5.4 117.215 5.32 117.282C5.24 117.362 5.2 117.455 5.2 117.562H5V114.962H5.2C5.2 115.068 5.24 115.162 5.32 115.242C5.4 115.322 5.49333 115.388 5.6 115.442C5.70667 115.508 5.82 115.555 5.94 115.582C6.07333 115.608 6.19333 115.622 6.3 115.622H12.74V113.902C12.74 113.688 12.6933 113.502 12.6 113.342C12.5067 113.182 12.3867 113.048 12.24 112.942C12.1067 112.848 11.9533 112.775 11.78 112.722C11.6067 112.668 11.4467 112.642 11.3 112.642V112.442H13.4V120.142H11.3V119.962ZM5 127.768H6.02L5.92 127.668C5.58667 127.334 5.32667 126.948 5.14 126.508C4.95333 126.081 4.86 125.561 4.86 124.948C4.86 124.481 4.91333 124.081 5.02 123.748C5.12667 123.414 5.27333 123.141 5.46 122.928C5.66 122.714 5.88667 122.554 6.14 122.448C6.39333 122.354 6.66 122.308 6.94 122.308C7.39333 122.308 7.79333 122.428 8.14 122.668C8.48667 122.921 8.79333 123.281 9.06 123.748C9.32667 124.214 9.56667 124.781 9.78 125.448C10.0067 126.128 10.2267 126.901 10.44 127.768C10.96 127.741 11.38 127.634 11.7 127.448C12.02 127.261 12.2667 127.041 12.44 126.788C12.6267 126.534 12.7467 126.268 12.8 125.988C12.8667 125.708 12.9 125.468 12.9 125.268C12.9 124.921 12.8467 124.614 12.74 124.348C12.6467 124.081 12.5133 123.848 12.34 123.648C12.18 123.448 11.9933 123.281 11.78 123.148C11.5667 123.028 11.3533 122.934 11.14 122.868V122.688H12.7C12.7 122.808 12.74 122.948 12.82 123.108C12.9133 123.268 13.0133 123.454 13.12 123.668C13.2267 123.894 13.32 124.161 13.4 124.468C13.4933 124.788 13.54 125.168 13.54 125.608C13.54 126.341 13.4467 126.934 13.26 127.388C13.0733 127.841 12.8267 128.188 12.52 128.428C12.2133 128.681 11.86 128.848 11.46 128.928C11.0733 129.008 10.6733 129.048 10.26 129.048H6.3C6.03333 129.048 5.78 129.114 5.54 129.248C5.31333 129.381 5.2 129.561 5.2 129.788H5V127.768ZM6.9 127.768H9.76L9.72 127.568C9.64 127.248 9.53333 126.854 9.4 126.388C9.26667 125.934 9.09333 125.501 8.88 125.088C8.66667 124.674 8.41333 124.321 8.12 124.028C7.82667 123.734 7.48667 123.588 7.1 123.588C6.67333 123.588 6.32 123.761 6.04 124.108C5.76 124.454 5.62 124.908 5.62 125.468C5.62 125.908 5.71333 126.294 5.9 126.628C6.1 126.961 6.35333 127.268 6.66 127.548L6.9 127.768ZM5.2 138.828C5.2 138.921 5.24 139.028 5.32 139.148C5.4 139.268 5.51333 139.328 5.66 139.328C5.68667 139.328 5.74 139.315 5.82 139.288C5.91333 139.275 6.01333 139.241 6.12 139.188L12.12 136.648L5.82 134.008C5.27333 133.781 5 133.335 5 132.668V132.228H5.2C5.2 132.415 5.29333 132.615 5.48 132.828C5.68 133.055 5.91333 133.235 6.18 133.368L12.54 136.088C12.7133 136.155 12.8533 136.188 12.96 136.188C13.12 136.188 13.2 136.081 13.2 135.868H13.4V137.488L6.2 140.568C6 140.661 5.78 140.795 5.54 140.968C5.31333 141.155 5.2 141.328 5.2 141.488H5V138.828H5.2ZM4.86 148.091C4.86 147.425 4.96667 146.825 5.18 146.291C5.40667 145.758 5.70667 145.298 6.08 144.911C6.46667 144.538 6.92 144.245 7.44 144.031C7.96 143.831 8.52667 143.731 9.14 143.731C9.79333 143.731 10.3867 143.845 10.92 144.071C11.4667 144.298 11.9333 144.611 12.32 145.011C12.7067 145.411 13.0067 145.885 13.22 146.431C13.4333 146.978 13.54 147.571 13.54 148.211C13.54 148.851 13.4333 149.438 13.22 149.971C13.02 150.505 12.7333 150.965 12.36 151.351C11.9867 151.738 11.54 152.038 11.02 152.251C10.5133 152.465 9.95333 152.571 9.34 152.571C8.76667 152.571 8.20667 152.471 7.66 152.271C7.12667 152.085 6.65333 151.798 6.24 151.411C5.82667 151.038 5.49333 150.571 5.24 150.011C4.98667 149.465 4.86 148.825 4.86 148.091ZM12.88 147.971C12.8533 147.491 12.7333 147.065 12.52 146.691C12.32 146.331 12.0533 146.025 11.72 145.771C11.4 145.531 11.0333 145.345 10.62 145.211C10.2067 145.091 9.78667 145.031 9.36 145.031C8.86667 145.031 8.38667 145.105 7.92 145.251C7.46667 145.411 7.06 145.631 6.7 145.911C6.34 146.205 6.05333 146.551 5.84 146.951C5.62667 147.351 5.52 147.798 5.52 148.291C5.52 148.785 5.62667 149.218 5.84 149.591C6.05333 149.978 6.32667 150.298 6.66 150.551C7.00667 150.805 7.39333 150.991 7.82 151.111C8.24667 151.245 8.67333 151.311 9.1 151.311C9.54 151.311 9.98 151.245 10.42 151.111C10.8733 150.978 11.28 150.771 11.64 150.491C12.0133 150.211 12.3133 149.858 12.54 149.431C12.7667 149.018 12.88 148.531 12.88 147.971ZM13.4 161.76H11.32V161.56C11.4667 161.56 11.62 161.527 11.78 161.46C11.9533 161.407 12.1067 161.32 12.24 161.2C12.3867 161.08 12.5067 160.933 12.6 160.76C12.6933 160.6 12.74 160.413 12.74 160.2L12.74 157.54H6.26C6.15333 157.54 6.04 157.553 5.92 157.58C5.8 157.62 5.68667 157.667 5.58 157.72C5.47333 157.787 5.38 157.86 5.3 157.94C5.23333 158.02 5.2 158.113 5.2 158.22H5V155.56H5.2C5.2 155.667 5.23333 155.76 5.3 155.84C5.38 155.92 5.47333 155.987 5.58 156.04C5.68667 156.107 5.8 156.153 5.92 156.18C6.04 156.207 6.15333 156.22 6.26 156.22H12.16C12.2533 156.22 12.36 156.207 12.48 156.18C12.6 156.153 12.7133 156.107 12.82 156.04C12.9267 155.987 13.0133 155.92 13.08 155.84C13.16 155.76 13.2 155.667 13.2 155.56H13.4L13.4 161.76Z" fill="white"/>
<path d="M11 210.987L5.19672 205.074M11 210.987L16.7973 205.3M11 210.987L11.1794 192.015" stroke="white"/>
</svg>
