<svg width="35" height="35" viewBox="0 0 35 35" fill="none" xmlns="http://www.w3.org/2000/svg">
<circle cx="17.5" cy="17.5" r="17.5" fill="#3B181E"/>
<rect x="9.5" y="9.5" width="17" height="17" rx="3.5" stroke="white"/>
<path d="M22.2108 19.4747C23.0796 20.3166 23.2605 20.7283 23.2898 20.779C23.6484 21.4033 22.8921 21.4522 22.8921 21.4522L21.4431 21.4741C21.4431 21.4741 21.1301 21.5382 20.721 21.243C20.1782 20.8549 19.4366 19.8425 19.0389 19.9741C18.6346 20.1074 18.7634 21.1687 18.7634 21.1687C18.7634 21.1687 18.7667 21.2986 18.6754 21.4033C18.5743 21.5129 18.3787 21.4707 18.3787 21.4707H17.9615C17.9615 21.4707 16.4146 21.4775 15.153 20.104C13.779 18.6074 12.6298 15.8082 12.6298 15.8082C12.6298 15.8082 12.5598 15.631 12.6347 15.5366C12.7211 15.4303 12.9542 15.4319 12.9542 15.4319H14.5043C14.5043 15.4319 14.6494 15.4522 14.7537 15.5332C14.8417 15.599 14.889 15.7238 14.889 15.7238C14.889 15.7238 15.0764 16.2452 15.4089 16.8459C16.056 18.0169 16.3576 18.2733 16.5776 18.1468C16.8971 17.9629 16.8009 16.4916 16.8009 16.4916C16.8009 16.4916 16.8074 15.9567 16.6396 15.7188C16.5092 15.5332 16.2663 15.4792 16.1587 15.464C16.0707 15.4539 16.2141 15.2413 16.4 15.1468C16.6787 15.0051 17.1726 14.9949 17.7545 15.0017C18.2076 15.0067 18.3787 15 18.3787 15C18.9134 15.135 18.7324 15.658 18.7324 16.9066C18.7324 17.3082 18.6623 17.8718 18.9394 18.0574C19.0584 18.14 19.4855 18.1519 20.2108 16.8611C20.5564 16.2486 20.8286 15.6732 20.8286 15.6732C20.8286 15.6732 20.8873 15.5433 20.9736 15.4893C21.0649 15.4319 21.1855 15.4319 21.1855 15.4319L22.8171 15.4404C22.8171 15.4404 23.3077 15.3763 23.386 15.6091C23.4691 15.8521 23.1855 16.2773 22.5205 17.207C21.4251 18.734 21.3029 18.5922 22.2108 19.4747Z" fill="white"/>
</svg>
