<svg width="35" height="35" viewBox="0 0 35 35" fill="none" xmlns="http://www.w3.org/2000/svg">
<circle cx="17.5" cy="17.5" r="17.5" fill="#3B181E"/>
<path fill-rule="evenodd" clip-rule="evenodd" d="M16.7273 13.568C16.6416 13.1562 16.4757 13.1167 16.3251 13.0821C16.2025 13.0528 16.0613 13.0259 15.9201 12.9989C15.7807 12.9723 15.5399 12.9847 15.3026 13.177C15.064 13.3671 14.4112 13.8151 14.1965 14.939C13.9821 16.061 14.5345 17.2924 14.61 17.4646C14.6876 17.6353 15.5925 20.2742 17.5683 21.6003C19.2114 22.7012 19.6044 22.6205 19.9985 22.6568C20.3947 22.6916 21.3572 22.3436 21.6351 21.8435C21.9128 21.3453 22 20.8886 21.9661 20.7828C21.9321 20.6769 21.8017 20.5936 21.6109 20.4383C21.422 20.2834 20.4867 19.534 20.3062 19.4196C20.1271 19.3075 19.9931 19.2429 19.8085 19.4434C19.6239 19.6438 19.1194 20.0812 18.9666 20.2098C18.8138 20.3384 18.6882 20.3338 18.4971 20.1805C18.3081 20.0255 17.6726 19.6548 17.0126 18.7222C16.499 17.9969 16.2163 17.1695 16.1364 16.9166C16.0561 16.6656 16.1896 16.5625 16.3178 16.4682C16.433 16.385 16.5814 16.2419 16.7132 16.1288C16.8432 16.0154 16.8961 15.928 16.9966 15.7895C17.0954 15.6506 17.086 15.5105 17.0556 15.3858C17.0252 15.2612 16.8294 14.055 16.7273 13.568Z" fill="white"/>
<path d="M11.0812 23.7562L11.5555 23.9143L11.6436 23.6502L11.4654 23.4362L11.0812 23.7562ZM10 26.9997L9.52566 26.8416L9.2464 27.6793L10.1085 27.4878L10 26.9997ZM14.0648 26.0964L14.2837 25.6468L14.1268 25.5704L13.9564 25.6083L14.0648 26.0964ZM26.5 18C26.5 22.6944 22.6944 26.5 18 26.5V27.5C23.2467 27.5 27.5 23.2467 27.5 18H26.5ZM18 9.5C22.6944 9.5 26.5 13.3056 26.5 18H27.5C27.5 12.7533 23.2467 8.5 18 8.5V9.5ZM9.5 18C9.5 13.3056 13.3056 9.5 18 9.5V8.5C12.7533 8.5 8.5 12.7533 8.5 18H9.5ZM11.4654 23.4362C10.2379 21.9625 9.5 20.0681 9.5 18H8.5C8.5 20.3105 9.32543 22.4294 10.697 24.0762L11.4654 23.4362ZM10.4743 27.1578L11.5555 23.9143L10.6068 23.5981L9.52566 26.8416L10.4743 27.1578ZM13.9564 25.6083L9.89153 26.5116L10.1085 27.4878L14.1733 26.5845L13.9564 25.6083ZM18 26.5C16.6664 26.5 15.4058 26.1932 14.2837 25.6468L13.8459 26.5459C15.1014 27.1573 16.5114 27.5 18 27.5V26.5Z" fill="white"/>
</svg>
